<?xml version="1.0" encoding="UTF-8"?>
<svg width="32px" height="32px" viewBox="0 0 32 32" version="1.1" xmlns="http://www.w3.org/2000/svg" xmlns:xlink="http://www.w3.org/1999/xlink">
    <!-- Generator: sketchtool 50.2 (55047) - http://www.bohemiancoding.com/sketch -->
    <title>907C74EF-5266-4002-A6FC-090A7A46893D</title>
    <desc>Created with sketchtool.</desc>
    <defs></defs>
    <g id="Symbols" stroke="none" stroke-width="1" fill="none" fill-rule="evenodd" opacity="0.399497768">
        <g id="icon_refresh" fill="#000000" fill-rule="nonzero">
            <path d="M9.63911274,19.5432118 C9.52447503,19.8711891 9.40983798,20.1991671 9.29520362,20.5271477 C9.17730384,20.8644435 8.85056267,21.0851142 8.48808974,20.9854177 C8.16091739,20.8954135 7.91173249,20.5161058 8.02980099,20.1782664 C8.04633583,20.1310052 8.06285192,20.0837066 8.07938676,20.0364454 C8.38171936,19.1714409 8.68407071,18.3064551 8.98640331,17.4414505 C9.04431274,17.2758022 9.13309846,17.1400365 9.28794854,17.0493198 C9.4311005,16.9654833 9.63285554,16.9270145 9.79353594,16.9831805 C9.84081583,16.9997153 9.88809572,17.0162502 9.93537561,17.0327663 C10.8003802,17.3351176 11.6653847,17.637469 12.5303893,17.9398203 C12.867685,18.0577201 13.0883745,18.3844613 12.9886593,18.7469717 C12.898655,19.0741253 12.5193473,19.3233102 12.1815267,19.2052417 C12.1342468,19.1887068 12.0869669,19.172172 12.039687,19.1556559 C11.5821045,18.9957138 11.1245221,18.8357716 10.6669396,18.6758295 C10.8682651,19.0986747 11.113753,19.4991384 11.3997587,19.8708158 C11.3655455,19.8265542 11.331351,19.7822738 11.2971565,19.738031 C11.6386515,20.1782476 12.0337817,20.573659 12.4733797,20.9159414 C12.4291181,20.8817282 12.3848565,20.8475337 12.3405948,20.8133392 C12.7927533,21.1626517 13.2873737,21.4528363 13.8129454,21.6769565 C13.7606976,21.6549288 13.7084497,21.6328823 13.6562019,21.6108171 C14.1951027,21.8381993 14.7612053,21.9939867 15.3406933,22.0735302 C15.2825402,22.0657127 15.2244058,22.0579139 15.1662527,22.0500964 C15.7444846,22.1271653 16.3298592,22.1273902 16.9082599,22.0517462 C16.8501067,22.0595637 16.7919723,22.0673811 16.7338192,22.0751986 C17.3189313,21.9962738 17.8913517,21.8415362 18.4360453,21.6136666 C18.3837974,21.6356944 18.3315683,21.6577596 18.2793205,21.679806 C18.8008053,21.4591165 19.2915639,21.1729813 19.7404416,20.8277556 C19.69618,20.8619689 19.6518996,20.8961634 19.6076567,20.9303579 C20.0531976,20.5848697 20.452827,20.1844529 20.7979777,19.7386684 C20.7637645,19.78293 20.72957,19.8272104 20.6953755,19.871472 C21.0424946,19.4195385 21.3306545,18.9255929 21.5531062,18.4009774 C21.5310785,18.4532064 21.509032,18.5054543 21.4869668,18.5577021 C21.6482097,18.1732765 21.773327,17.7751843 21.8607067,17.3675499 C21.9356946,17.0177687 22.3382486,16.8186195 22.6678393,16.9092424 C23.027219,17.008114 23.2010035,17.3669875 23.1261093,17.7163938 C22.9395206,18.5867225 22.5825218,19.4382479 22.0852018,20.1770291 C21.0156489,21.7658734 19.345124,22.9238933 17.452841,23.2807609 C16.4924705,23.4618943 15.5217705,23.463544 14.5633872,23.2664195 C13.6966391,23.0881544 12.8478882,22.7398167 12.108301,22.2533512 C11.0678456,21.5689825 10.2154098,20.6325417 9.63911274,19.5432118 Z M22.3608422,12.8722985 C22.4754851,12.5443171 22.590128,12.216335 22.7047709,11.8883503 C22.8226707,11.5510546 23.1494118,11.3303651 23.5119223,11.4300803 C23.8390759,11.5200846 24.0882795,11.8993923 23.9701923,12.2372129 C23.9536574,12.2844928 23.9371226,12.3317727 23.9206065,12.3790526 C23.6182552,13.2440572 23.3159038,14.109043 23.0135525,14.9740475 C22.955643,15.1396959 22.8668573,15.2754615 22.7120072,15.3661782 C22.5688553,15.4500334 22.3670815,15.4884835 22.2064011,15.4323175 C22.1591399,15.4157827 22.1118413,15.3992666 22.0645802,15.3827318 C21.1995756,15.0803992 20.334571,14.7780478 19.4695665,14.4757152 C19.1322707,14.3578154 18.9116,14.0310743 19.0112965,13.6685826 C19.1013007,13.3414102 19.4806084,13.0922253 19.8184478,13.2102938 C19.865709,13.2268287 19.9130076,13.2433448 19.9602688,13.2598796 C20.4178466,13.4198102 20.8754244,13.579746 21.3330022,13.7396816 C21.1316716,13.3168315 20.8861714,12.9163635 20.6001783,12.5446822 C20.6343915,12.5889438 20.668586,12.6332054 20.7027805,12.6774671 C20.3612855,12.2372317 19.9661366,11.8418203 19.5265386,11.4995379 C19.5708002,11.5337511 19.6150806,11.5679456 19.6593422,11.6021401 C19.2072024,11.2528276 18.7125633,10.9626617 18.1869916,10.7385228 C18.2392394,10.7605505 18.2914873,10.7826157 18.3437351,10.8046622 C17.8048343,10.57728 17.2387129,10.4215113 16.6592437,10.3419491 C16.7173968,10.3497666 16.7755312,10.3575654 16.8336844,10.3653829 C16.2554711,10.2882953 15.6700778,10.288089 15.0916772,10.3637144 C15.1498303,10.3558969 15.2079647,10.3480981 15.2661178,10.3402806 C14.6810057,10.4191867 14.1086041,10.5739243 13.5639105,10.8018126 C13.6161583,10.7797662 13.6684062,10.7577197 13.720654,10.7356733 C13.1991504,10.9563628 12.7083919,11.242498 12.2595141,11.5877237 C12.3037758,11.5535104 12.3480561,11.5193159 12.3923178,11.4851214 C11.9467582,11.8306096 11.5471475,12.2310077 11.2019781,12.6768109 C11.2361913,12.6325493 11.2703858,12.5882877 11.3045803,12.544026 C10.9574799,12.9959596 10.66932,13.4899051 10.4468496,14.0145394 C10.468896,13.9622916 10.4909425,13.9100437 10.5129889,13.8577959 C10.3517461,14.2422403 10.2266475,14.6403137 10.1392678,15.0479481 C10.0642799,15.3977294 9.66174464,15.5968786 9.33211643,15.5062369 C8.97271801,15.4073841 8.79893348,15.0484918 8.87382768,14.6991043 C9.06039765,13.8287568 9.41739646,12.9772501 9.91473518,12.2384315 C10.9842881,10.6495871 12.654813,9.49156721 14.5470773,9.13469964 C15.5074478,8.95358503 16.4781478,8.9519353 17.4365311,9.14905983 C18.3032604,9.32732489 19.1520301,9.67566259 19.8916173,10.1621281 C20.9320964,10.8464917 21.7845435,11.7829494 22.3608422,12.8722985 Z" id="refresh"></path>
        </g>
    </g>
</svg>