<?xml version="1.0" encoding="UTF-8"?>
<svg width="32px" height="32px" viewBox="0 0 32 32" version="1.1" xmlns="http://www.w3.org/2000/svg" xmlns:xlink="http://www.w3.org/1999/xlink">
    <!-- Generator: sketchtool 50.2 (55047) - http://www.bohemiancoding.com/sketch -->
    <title>458E6C67-1D2A-4E59-92BF-327D5F824164</title>
    <desc>Created with sketchtool.</desc>
    <defs></defs>
    <g id="Symbols" stroke="none" stroke-width="1" fill="none" fill-rule="evenodd">
        <g id="icon_sell">
            <g id="Group-9" transform="translate(10.000000, 3.000000)">
                <g id="Group-6" transform="translate(0.000000, 13.000000)">
                    <path d="M6.14584431,13 C6.09693062,13 6.04831572,12.9996959 6,12.999087 C5.95168428,12.9996959 5.90306938,13 5.85415569,13 C5.82444456,13 5.79519868,12.9978521 5.76654434,12.9936925 C3.98418195,12.9333753 2.62688962,12.4397051 1.71709851,11.4801835 L1.57304858,11.3282596 L0.0125333498,2.83783906 C-0.0573024971,2.45787756 0.253648552,0.475097656 6.00178778,0.475097656 C11.749927,0.475097656 12.0573025,2.45787756 11.9874667,2.83783906 L10.4269514,11.3282596 L10.2829015,11.4801835 C9.37311038,12.4397051 8.01581805,12.9333753 6.23345566,12.9936925 C6.20480132,12.9978521 6.17555544,13 6.14584431,13 Z" id="Combined-Shape" fill="#D6D6D6" fill-rule="nonzero"></path>
                    <ellipse id="Oval" fill="#A9A9A9" cx="6" cy="2.5" rx="5" ry="1.5"></ellipse>
                </g>
                <path d="M4.81431043,7.85163953 L4.81431043,0.763321316 C4.81431043,0.341750594 5.2896858,0 5.87609103,0 C6.46249627,0 6.93787164,0.341750594 6.93787164,0.763321316 L6.93787164,8.10452102 L10.1552046,4.82144969 C10.5512647,4.41729704 11.2228997,4.38973197 11.6553433,4.7598814 C12.0877869,5.13003083 12.1172816,5.75772669 11.7212214,6.16187934 L6,12 L0.278778568,6.16187934 C-0.117281562,5.75772669 -0.087786927,5.13003083 0.34465668,4.7598814 C0.777100287,4.38973197 1.44873527,4.41729704 1.8447954,4.82144969 L4.81431043,7.85163953 Z" id="Combined-Shape" fill="#F66B7C" fill-rule="nonzero" transform="translate(6.000000, 6.000000) scale(1, -1) translate(-6.000000, -6.000000) "></path>
            </g>
        </g>
    </g>
</svg>