<?xml version="1.0" encoding="UTF-8"?>
<svg width="48px" height="48px" viewBox="0 0 48 48" version="1.1" xmlns="http://www.w3.org/2000/svg" xmlns:xlink="http://www.w3.org/1999/xlink">
    <!-- Generator: Sketch 51.1 (57501) - http://www.bohemiancoding.com/sketch -->
    <title>icon_chart</title>
    <desc>Created with Sketch.</desc>
    <defs></defs>
    <g id="icon_chart" stroke="none" stroke-width="1" fill="none" fill-rule="evenodd">
        <path d="M42.8947368,40.1052632 L42.8947368,41.0526316 C42.8947368,41.5755789 42.4703158,42 41.9473684,42 L5.94736842,42 C5.42442105,42 5,41.5755789 5,41.0526316 L5,40.1052632 C5,39.5823158 5.42442105,39.1578947 5.94736842,39.1578947 L6.89473684,39.1578947 L6.89473684,29.6842105 C6.89473684,29.1612632 7.31915789,28.7368421 7.84210526,28.7368421 L11.6315789,28.7368421 C12.1545263,28.7368421 12.5789474,29.1612632 12.5789474,29.6842105 L12.5789474,39.1578947 L16.3684211,39.1578947 L16.3684211,22.1052632 C16.3684211,21.5823158 16.7928421,21.1578947 17.3157895,21.1578947 L21.1052632,21.1578947 C21.6282105,21.1578947 22.0526316,21.5823158 22.0526316,22.1052632 L22.0526316,39.1578947 L25.8421053,39.1578947 L25.8421053,14.5263158 C25.8421053,14.0033684 26.2665263,13.5789474 26.7894737,13.5789474 L30.5789474,13.5789474 C31.1018947,13.5789474 31.5263158,14.0033684 31.5263158,14.5263158 L31.5263158,39.1578947 L35.3157895,39.1578947 L35.3157895,19.271229 C35.3157895,18.7482817 35.7402105,18.3238606 36.2631579,18.3238606 L40.0526316,18.3238606 C40.5755789,18.3238606 41,18.7482817 41,19.271229 L41,39.1578947 L41.9473684,39.1578947 C42.4703158,39.1578947 42.8947368,39.5823158 42.8947368,40.1052632 Z" id="Shape" fill="#000000" fill-rule="nonzero"></path>
    </g>
</svg>