<svg xmlns="http://www.w3.org/2000/svg" width="62" height="14" viewBox="0 0 62 14">
    <path fill="#9B9B9B" fill-rule="evenodd" d="M19.05 6.103c-1.413 0-2.624 1.064-2.624 2.642 0 1.633 1.21 2.66 2.623 2.66 1.431 0 2.569-1.082 2.569-2.66 0-1.633-1.138-2.642-2.569-2.642zM14.04.453h2.238V5.46c.532-.935 2.018-1.45 2.972-1.45 2.642 0 4.605 1.615 4.605 4.734 0 2.972-2 4.733-4.66 4.733-1.1 0-2.22-.367-2.917-1.45l-.146 1.248H14.04V.453zM31.842 5.48l.074-1.248h2.146v9.044h-2.11l-.11-1.32c-.513 1.064-1.926 1.577-2.935 1.596-2.678.018-4.66-1.633-4.66-4.807 0-3.119 2.073-4.751 4.715-4.733 1.21 0 2.367.569 2.88 1.468zm-2.678.532c-1.486 0-2.679 1.009-2.679 2.733 0 1.725 1.193 2.752 2.679 2.752 3.522 0 3.522-5.485 0-5.485zm12.48 4.641l1.505 1.468c-1.046 1.027-2.146 1.43-3.485 1.43-2.624 0-4.807-1.577-4.807-4.788 0-3.21 2.183-4.788 4.807-4.788 1.284 0 2.274.367 3.265 1.34L41.516 6.8a2.747 2.747 0 0 0-1.816-.715c-1.504 0-2.605 1.1-2.605 2.678 0 1.725 1.174 2.642 2.569 2.642.715 0 1.43-.202 1.98-.752zm1.786-6.42h2.239v4.732c0 1.376.752 2.422 2.183 2.422 1.376 0 2.311-1.156 2.311-2.532V4.232h2.22v9.063h-2l-.146-1.23c-.936.918-1.798 1.358-3.064 1.358-2.165 0-3.743-1.633-3.743-4.44v-4.75zm-36.71.396l-3.776 8.107a1.382 1.382 0 0 1-1.815.679A1.336 1.336 0 0 1 .46 11.63L5.481.853C5.73.322 6.271.02 6.824.057c.502.017.975.315 1.194.805l4.79 10.759a1.359 1.359 0 0 1-2.483 1.105L6.72 4.629zm54.035.539l-1.248 1.467c-.642-.605-1.376-.807-2.238-.807-1.064 0-1.651.33-1.651.9 0 .586.532.916 1.688.99 1.706.11 3.87.495 3.87 2.898 0 1.596-1.302 2.972-3.889 2.972-1.43 0-2.862-.238-4.182-1.614l1.1-1.596c.642.715 2.11 1.247 3.119 1.266.844.018 1.633-.422 1.633-1.083 0-.623-.514-.88-1.798-.954-1.706-.128-3.743-.752-3.743-2.807 0-2.09 2.165-2.825 3.816-2.825 1.413 0 2.477.275 3.523 1.193z"/>
</svg>
